<?xml version="1.0" standalone="no"?>
<!DOCTYPE svg PUBLIC "-//W3C//DTD SVG 20010904//EN"
 "http://www.w3.org/TR/2001/REC-SVG-20010904/DTD/svg10.dtd">
<svg version="1.0" xmlns="http://www.w3.org/2000/svg"
 width="2opx" height="20px" viewBox="0 0 25.000000 25.000000" opacity="0.5"
 preserveAspectRatio="xMidYMid meet">

<g transform="translate(0.000000,25.000000) scale(0.100000,-0.100000)"
fill="#000000" stroke="none">
<path d="M24 236 c-16 -12 -19 -27 -19 -104 0 -119 3 -122 119 -122 58 0 96 4
104 12 8 8 12 47 12 110 0 86 -2 98 -19 108 -30 16 -173 13 -197 -4z m121
-115 c-14 -23 -29 -41 -33 -41 -13 0 -32 23 -32 38 0 12 3 12 15 2 9 -7 17
-11 18 -9 2 2 14 19 27 38 33 47 37 22 5 -28z"/>
</g>
</svg>
